<svg width="48" height="48" viewBox="0 0 48 48" xmlns="http://www.w3.org/2000/svg">
  <defs>
    <!-- 4-stop gradient for 3D depth - MSI colors (similar to exe) -->
    <linearGradient id="msiGradient" x1="0%" y1="0%" x2="100%" y2="100%">
      <stop offset="0%" style="stop-color:#B0BEC5;stop-opacity:1" />
      <stop offset="35%" style="stop-color:#90A4AE;stop-opacity:1" />
      <stop offset="65%" style="stop-color:#78909C;stop-opacity:1" />
      <stop offset="100%" style="stop-color:#546E7A;stop-opacity:1" />
    </linearGradient>
    
    <!-- Shadow filters -->
    <filter id="bodyShadow" x="-50%" y="-50%" width="200%" height="200%">
      <feDropShadow dx="0" dy="4" stdDeviation="8" flood-color="#000000" flood-opacity="0.25"/>
    </filter>
    <filter id="foldShadow" x="-50%" y="-50%" width="200%" height="200%">
      <feDropShadow dx="2" dy="2" stdDeviation="4" flood-color="#000000" flood-opacity="0.20"/>
    </filter>
    <filter id="badgeShadow" x="-50%" y="-50%" width="200%" height="200%">
      <feDropShadow dx="0" dy="1" stdDeviation="2" flood-color="#000000" flood-opacity="0.15"/>
    </filter>
  </defs>
  
  <!-- Main body (elevation 4px scaled) -->
  <g filter="url(#bodyShadow)">
    <path d="M8 4 L28 4 L40 16 L40 44 L8 44 Z" fill="url(#msiGradient)" />
    <!-- Body highlight -->
    <path d="M8 4 L28 4 L28 16 L40 16" stroke="#FFFFFF" stroke-width="1" opacity="0.3" fill="none" />
  </g>
  
  <!-- Folded corner (elevation 2px scaled) -->
  <g filter="url(#foldShadow)">
    <path d="M28 4 L28 16 L40 16" fill="#78909C" />
    <!-- Fold highlight -->
    <path d="M28 4 L28 16 L40 16" stroke="#FFFFFF" stroke-width="1" opacity="0.2" fill="none" />
  </g>
  
  <!-- Package/installer icon (scaled) -->
  <g transform="translate(10, 18)" stroke="#FFFFFF" fill="none" stroke-width="1.5" opacity="0.8">
    <!-- Package box -->
    <rect x="4" y="6" width="20" height="14" rx="1" />
    <!-- Package top flap -->
    <path d="M4 10 L14 6 L24 10" />
    <line x1="14" y1="6" x2="14" y2="20" />
    <!-- Package lines -->
    <line x1="8" y1="14" x2="20" y2="14" />
    <line x1="8" y1="18" x2="18" y2="18" />
  </g>
  
  <!-- Floating MSI badge (scaled) -->
  <g filter="url(#badgeShadow)">
    <rect x="25" y="6" width="12" height="6" rx="2" fill="#FFFFFF" opacity="0.9" />
    <text x="31" y="11" text-anchor="middle" fill="#546E7A" 
          font-family="Segoe UI, Arial, sans-serif" 
          font-weight="bold" 
          font-size="4">MSI</text>
  </g>
</svg>