<svg width="24" height="24" viewBox="0 0 24 24" xmlns="http://www.w3.org/2000/svg">
  <defs>
    <!-- 4-stop gradient for 3D depth - Encrypted folder colors -->
    <linearGradient id="folderGradient" x1="0%" y1="0%" x2="100%" y2="100%">
      <stop offset="0%" style="stop-color:#AB47BC;stop-opacity:1" />
      <stop offset="35%" style="stop-color:#9C27B0;stop-opacity:1" />
      <stop offset="65%" style="stop-color:#7B1FA2;stop-opacity:1" />
      <stop offset="100%" style="stop-color:#4A148C;stop-opacity:1" />
    </linearGradient>
    
    <!-- Tab gradient (slightly lighter) -->
    <linearGradient id="tabGradient" x1="0%" y1="0%" x2="100%" y2="100%">
      <stop offset="0%" style="stop-color:#AB47BC;stop-opacity:0.95" />
      <stop offset="100%" style="stop-color:#9C27B0;stop-opacity:0.95" />
    </linearGradient>
    
    <!-- Shadow filters -->
    <filter id="bodyShadow" x="-50%" y="-50%" width="200%" height="200%">
      <feDropShadow dx="0" dy="2" stdDeviation="4" flood-color="#000000" flood-opacity="0.25"/>
    </filter>
    <filter id="tabShadow" x="-50%" y="-50%" width="200%" height="200%">
      <feDropShadow dx="0" dy="1" stdDeviation="2" flood-color="#000000" flood-opacity="0.20"/>
    </filter>
    <filter id="indicatorShadow" x="-50%" y="-50%" width="200%" height="200%">
      <feDropShadow dx="0" dy="0.5" stdDeviation="1" flood-color="#000000" flood-opacity="0.15"/>
    </filter>
  </defs>
  
  <!-- Tab Layer (elevation 2px) -->
  <g filter="url(#tabShadow)">
    <path d="M2 6 L8 6 L10 4 L22 4 L22 8 L2 8 Z" fill="url(#tabGradient)" />
    <!-- Tab highlight -->
    <path d="M2 6 L8 6 L10 4 L22 4" stroke="#FFFFFF" stroke-width="0.5" opacity="0.3" fill="none" />
  </g>
  
  <!-- Body Layer (elevation 4px) -->
  <g filter="url(#bodyShadow)">
    <path d="M2 8 L22 8 L22 20 L2 20 Z" fill="url(#folderGradient)" />
    <!-- Body highlight -->
    <path d="M2 8 L22 8" stroke="#FFFFFF" stroke-width="0.5" opacity="0.2" fill="none" />
  </g>
  
  <!-- Variant Indicator (elevation 1px) - Floating lock icon -->
  <g filter="url(#indicatorShadow)">
    <!-- Lock body -->
    <rect x="9" y="14" width="6" height="5" rx="1" fill="#FFFFFF" opacity="0.95" />
    <!-- Lock shackle -->
    <path d="M10 14 L10 12 A2 2 0 0 1 2 -2 L14 10 A2 2 0 0 1 2 2 L14 14" 
          fill="none" stroke="#FFFFFF" stroke-width="1" opacity="0.95" />
    <!-- Lock keyhole -->
    <circle cx="12" cy="16.5" r="0.8" fill="#7B1FA2" />
  </g>
</svg>